<?xml version="1.0" encoding="UTF-8"?><svg id="Layer_1" xmlns="http://www.w3.org/2000/svg" viewBox="0 0 299.54 274.66"><defs><style>.cls-1,.cls-2{fill:#1f1e22;}.cls-2{stroke-linecap:round;}.cls-2,.cls-3{stroke:#1f1e22;}.cls-3{fill:none;stroke-miterlimit:10;stroke-width:2px;}</style></defs><g><path class="cls-1" d="M25.94,257.72v16.8h-1.75v-7.75H13.68v7.75h-1.78v-16.8h1.78v7.49h10.51v-7.49h1.75Z"/><path class="cls-1" d="M41.95,270.03h-9.36l-2.02,4.49h-1.85l7.68-16.8h1.75l7.68,16.8h-1.87l-2.02-4.49Zm-.65-1.44l-4.03-9.02-4.03,9.02h8.06Z"/><path class="cls-1" d="M62.66,257.72v16.8h-1.46l-10.8-13.63v13.63h-1.78v-16.8h1.46l10.82,13.63v-13.63h1.75Z"/><path class="cls-1" d="M82.17,257.72v16.8h-1.46l-10.8-13.63v13.63h-1.78v-16.8h1.46l10.82,13.63v-13.63h1.75Z"/><path class="cls-1" d="M98.18,270.03h-9.36l-2.02,4.49h-1.85l7.68-16.8h1.75l7.68,16.8h-1.87l-2.02-4.49Zm-.65-1.44l-4.03-9.02-4.03,9.02h8.06Z"/><path class="cls-1" d="M125.18,257.72v16.8h-1.75v-7.75h-10.51v7.75h-1.78v-16.8h1.78v7.49h10.51v-7.49h1.75Z"/><path class="cls-1" d="M129.16,266.12c0-4.9,3.74-8.54,8.83-8.54s8.81,3.62,8.81,8.54-3.77,8.54-8.81,8.54-8.83-3.65-8.83-8.54Zm15.87,0c0-4.01-3-6.96-7.03-6.96s-7.08,2.95-7.08,6.96,3.03,6.96,7.08,6.96,7.03-2.95,7.03-6.96Z"/><path class="cls-1" d="M150.79,257.72h1.78v15.27h9.41v1.54h-11.18v-16.8Z"/><path class="cls-1" d="M166.63,259.26h-5.9v-1.54h13.59v1.54h-5.91v15.27h-1.78v-15.27Z"/><path class="cls-1" d="M183.43,257.72h6.84c5.38,0,9,3.46,9,8.4s-3.62,8.4-9,8.4h-6.84v-16.8Zm6.74,15.27c4.46,0,7.35-2.83,7.35-6.86s-2.88-6.87-7.35-6.87h-4.97v13.73h4.97Z"/><path class="cls-1" d="M215.13,272.98v1.54h-11.88v-16.8h11.52v1.54h-9.74v5.98h8.69v1.51h-8.69v6.24h10.1Z"/><path class="cls-1" d="M217.7,272.48l.7-1.37c1.2,1.18,3.34,2.04,5.54,2.04,3.14,0,4.51-1.32,4.51-2.98,0-4.61-10.35-1.78-10.35-7.99,0-2.47,1.92-4.61,6.19-4.61,1.9,0,3.86,.55,5.21,1.49l-.6,1.42c-1.44-.94-3.12-1.39-4.61-1.39-3.07,0-4.44,1.37-4.44,3.05,0,4.61,10.35,1.82,10.35,7.94,0,2.47-1.97,4.58-6.27,4.58-2.52,0-4.99-.89-6.24-2.18Z"/><path class="cls-1" d="M234.07,257.72h1.78v16.8h-1.78v-16.8Z"/><path class="cls-1" d="M253.15,266.12h1.71v6.41c-1.58,1.42-3.84,2.14-6.17,2.14-5.11,0-8.86-3.62-8.86-8.54s3.74-8.54,8.88-8.54c2.54,0,4.75,.82,6.24,2.42l-1.1,1.13c-1.42-1.39-3.1-1.97-5.06-1.97-4.15,0-7.2,2.95-7.2,6.96s3.05,6.96,7.18,6.96c1.61,0,3.1-.36,4.39-1.3v-5.66Z"/><path class="cls-1" d="M273.91,257.72v16.8h-1.46l-10.8-13.63v13.63h-1.78v-16.8h1.46l10.82,13.63v-13.63h1.75Z"/><path class="cls-1" d="M277.77,272.48l.7-1.37c1.2,1.18,3.34,2.04,5.54,2.04,3.14,0,4.51-1.32,4.51-2.98,0-4.61-10.34-1.78-10.34-7.99,0-2.47,1.92-4.61,6.19-4.61,1.9,0,3.87,.55,5.21,1.49l-.6,1.42c-1.44-.94-3.12-1.39-4.61-1.39-3.07,0-4.44,1.37-4.44,3.05,0,4.61,10.34,1.82,10.34,7.94,0,2.47-1.97,4.58-6.26,4.58-2.52,0-4.99-.89-6.24-2.18Z"/></g><path class="cls-3" d="M298.54,110.72c0,60.6-49.12,109.72-109.72,109.72H110.72C50.12,220.44,1,171.31,1,110.72S50.12,1,110.72,1h78.1c60.6,0,109.72,49.12,109.72,109.72Z"/><path class="cls-2" d="M195.63,61.28h-31.89c-8.87,0-17.13,2.59-24.09,7.04v-31.72h-20.72v58.63h-1.84c-8.87,0-17.13,2.59-24.09,7.04v-31.72h-20.72v71.99c0,20,14.14,37.84,32.76,42.3,5.05,0,24.07,0,28.68,0,.14,0,.15-.2,0-.22-27.04-4.48-40.75-25.05-40.75-43.68l.02-1.46c.22-17.36,10.68-32.25,25.63-38.91,.1-.04,.2-.08,.3-.12v8.15c0,20,14.14,37.84,32.76,42.3,3.53,0,13.88,0,21.37,0v33.95h20.7v-44.8h.01c0-24.74-20.06-44.8-44.8-44.8h-7.95c3.32-12.81,12.36-23.32,24.25-28.61,9.14-4.07,19.67-4.07,28.81,0,15.11,6.73,25.64,21.86,25.64,39.47h-.01v44.8h20.7v-44.8h.01c0-24.74-20.06-44.8-44.8-44.8Zm-48.19,39.28c15.11,6.73,25.64,21.86,25.64,39.47h-.01v8.94c-22.19-6.67-33.44-25.12-33.44-41.99l.02-1.46c.03-2.47,.28-4.89,.71-7.25,2.42,.51,4.79,1.27,7.08,2.29Z"/></svg>