<?xml version="1.0" encoding="utf-8"?>
<!-- Generator: Adobe Illustrator 27.4.1, SVG Export Plug-In . SVG Version: 6.00 Build 0)  -->
<svg version="1.1" id="Layer_1" xmlns="http://www.w3.org/2000/svg" xmlns:xlink="http://www.w3.org/1999/xlink" x="0px" y="0px"
	 viewBox="0 0 360 360" style="enable-background:new 0 0 360 360;" xml:space="preserve">
<style type="text/css">
	.st0{fill:none;stroke:#1F1E22;stroke-width:2;stroke-miterlimit:10;}
	.st1{fill:#1F1E22;stroke:#1F1E22;stroke-miterlimit:10;}
</style>
<g>
	<g>
		<path class="st0" d="M329.02,180c0,60.6-49.12,109.72-109.72,109.72h-78.1C80.6,289.72,31.48,240.6,31.48,180
			S80.6,70.28,141.2,70.28h78.1C279.9,70.28,329.02,119.4,329.02,180z"/>
	</g>
	<g>
		<path class="st1" d="M226.11,130.56h-31.89c-8.87,0-17.13,2.59-24.09,7.04v-31.72H149.4v58.63h-1.84
			c-8.87,0-17.13,2.59-24.09,7.04v-31.72h-20.72v71.99c0,20,14.14,37.84,32.76,42.3c5.05,0,24.07-0.01,28.68-0.01
			c0.14,0,0.15-0.2,0.01-0.22c-27.04-4.48-40.75-25.05-40.75-43.68l0.02-1.46c0.22-17.36,10.68-32.25,25.63-38.91
			c0.1-0.04,0.2-0.08,0.3-0.12v8.15c0,20,14.14,37.84,32.76,42.3c3.53,0,13.88,0,21.37-0.01v33.95h20.7v-44.8h0.01
			c0-24.74-20.06-44.8-44.8-44.8h-7.95c3.32-12.81,12.36-23.32,24.25-28.61c9.14-4.07,19.67-4.07,28.81,0
			c15.11,6.73,25.64,21.86,25.64,39.47h-0.01v44.8h20.7v-44.8h0.01C270.91,150.62,250.85,130.56,226.11,130.56z M177.91,169.85
			c15.11,6.73,25.64,21.86,25.64,39.47h-0.01v8.94c-22.19-6.67-33.44-25.12-33.44-41.99l0.02-1.46c0.03-2.47,0.28-4.89,0.71-7.25
			C173.25,168.06,175.63,168.83,177.91,169.85z"/>
	</g>
</g>
</svg>
