<?xml version="1.0" encoding="UTF-8"?><svg id="Layer_1" xmlns="http://www.w3.org/2000/svg" viewBox="0 0 299.54 221.44"><defs><style>.cls-1{fill:#e2e2e2;}.cls-1,.cls-2{stroke:#e2e2e2;stroke-miterlimit:10;}.cls-2{fill:none;stroke-width:2px;}</style></defs><path class="cls-2" d="m298.54,110.72c0,60.6-49.12,109.72-109.72,109.72h-78.1C50.12,220.44,1,171.31,1,110.72S50.12,1,110.72,1h78.1c60.6,0,109.72,49.12,109.72,109.72Z"/><path class="cls-1" d="m195.63,61.28h-31.89c-8.87,0-17.13,2.59-24.09,7.04v-31.72h-20.72v58.63h-1.84c-8.87,0-17.13,2.59-24.09,7.04v-31.72h-20.72v71.99c0,20,14.14,37.84,32.76,42.3,5.05,0,24.07,0,28.68,0,.14,0,.15-.2,0-.22-27.04-4.48-40.75-25.05-40.75-43.68l.02-1.46c.22-17.36,10.68-32.25,25.63-38.91.1-.04.2-.08.3-.12v8.15c0,20,14.14,37.84,32.76,42.3,3.53,0,13.88,0,21.37,0v33.95h20.7v-44.8h.01c0-24.74-20.06-44.8-44.8-44.8h-7.95c3.32-12.81,12.36-23.32,24.25-28.61,9.14-4.07,19.67-4.07,28.81,0,15.11,6.73,25.64,21.86,25.64,39.47h-.01v44.8h20.7v-44.8h.01c0-24.74-20.06-44.8-44.8-44.8Zm-48.19,39.28c15.11,6.73,25.64,21.86,25.64,39.47h-.01v8.94c-22.19-6.67-33.44-25.12-33.44-41.99l.02-1.46c.03-2.47.28-4.89.71-7.25,2.42.51,4.79,1.27,7.08,2.29Z"/></svg>